<svg width="42" height="38" viewBox="0 0 42 38" fill="none" xmlns="http://www.w3.org/2000/svg">
<path fill-rule="evenodd" clip-rule="evenodd" d="M3.87388 23.4015L15.429 3.05872C15.9532 2.13537 16.7376 1.36267 17.6979 0.823727C18.6581 0.284786 19.7579 0 20.8789 0C21.9998 0 23.0996 0.284786 24.0598 0.823727C25.0201 1.36267 25.8045 2.13537 26.3287 3.05872L37.8838 23.4015C38.3822 24.2773 38.629 25.2583 38.6002 26.2492C38.5714 27.2401 38.2679 28.2072 37.7194 29.0565C37.1708 29.9058 36.3958 30.6084 35.4696 31.096C34.5435 31.5836 33.4977 31.8396 32.434 31.8392H9.32375C8.26002 31.8396 7.21425 31.5836 6.28809 31.096C5.36194 30.6084 4.58691 29.9058 4.03835 29.0565C3.48979 28.2072 3.18635 27.2401 3.15753 26.2492C3.12871 25.2583 3.37549 24.2773 3.87388 23.4015ZM25.6225 7.58123L22.8092 10.1912L20.8785 5.46061L18.9522 10.1912L16.1345 7.58123L6.02903 25.4842L18.9522 13.6005L20.8785 18.0906L22.8092 13.6005L35.728 25.4842L25.6225 7.58123ZM20.8786 18.2039L16.5675 28.2157L20.8786 24.4766L25.1898 28.2157L20.8786 18.2039Z" fill="white"/>
<path d="M0.741491 35.1345H2.97434V37.9204H2.00244V35.9623H1.61285L1.52487 36.7065C1.42713 37.5211 1.02636 37.9284 0.322569 37.9284H0V37.1324H0.0879735C0.235992 37.1324 0.347705 37.0913 0.423111 37.009C0.498516 36.9241 0.54739 36.7875 0.569733 36.5991L0.741491 35.1345Z" fill="white"/>
<path d="M6.24297 37.9204L6.1173 37.5344H5.1831L5.05324 37.9204H4.00175L5.17054 35.1345H6.15081L7.32798 37.9204H6.24297ZM5.93716 36.8856L5.6523 36.1175L5.36743 36.8856H5.93716Z" fill="white"/>
<path d="M9.6835 38C9.2143 38 8.8275 37.862 8.52308 37.5861C8.21867 37.3075 8.06646 36.9546 8.06646 36.5274C8.06646 36.1003 8.21867 35.7487 8.52308 35.4728C8.8275 35.1942 9.2143 35.0549 9.6835 35.0549C10.0996 35.0549 10.4501 35.1716 10.735 35.4051C11.0226 35.6359 11.193 35.9397 11.2461 36.3165H10.249C10.2071 36.1918 10.1345 36.0923 10.0312 36.018C9.93066 35.9411 9.81615 35.9026 9.68769 35.9026C9.51453 35.9026 9.37349 35.961 9.26458 36.0777C9.15845 36.1918 9.10539 36.3417 9.10539 36.5274C9.10539 36.7132 9.15845 36.8631 9.26458 36.9772C9.37349 37.0913 9.51453 37.1483 9.68769 37.1483C9.82453 37.1483 9.94323 37.1072 10.0438 37.0249C10.1471 36.94 10.2141 36.8299 10.2449 36.6946H11.2544C11.207 37.082 11.038 37.3964 10.7476 37.6378C10.4599 37.8793 10.1052 38 9.6835 38Z" fill="white"/>
<path d="M14.732 35.1345V35.9424H13.9402V37.9204H12.9599V35.9424H12.1682V35.1345H14.732Z" fill="white"/>
<path d="M18.5525 37.5941C18.2453 37.8647 17.8404 38 17.3376 38C16.8349 38 16.43 37.8647 16.1228 37.5941C15.8156 37.3234 15.662 36.9679 15.662 36.5274C15.662 36.087 15.8156 35.7315 16.1228 35.4608C16.43 35.1902 16.8349 35.0549 17.3376 35.0549C17.8404 35.0549 18.2453 35.1902 18.5525 35.4608C18.8597 35.7315 19.0133 36.087 19.0133 36.5274C19.0133 36.9679 18.8597 37.3234 18.5525 37.5941ZM16.8768 36.9772C16.9941 37.0913 17.1477 37.1483 17.3376 37.1483C17.5276 37.1483 17.6812 37.0913 17.7985 36.9772C17.9158 36.8631 17.9744 36.7132 17.9744 36.5274C17.9744 36.3417 17.9158 36.1918 17.7985 36.0777C17.6812 35.9636 17.5276 35.9066 17.3376 35.9066C17.1477 35.9066 16.9941 35.9636 16.8768 36.0777C16.7595 36.1918 16.7009 36.3417 16.7009 36.5274C16.7009 36.7132 16.7595 36.8631 16.8768 36.9772Z" fill="white"/>
<path d="M21.6136 35.1385H22.6106V37.9244H21.6136V37.1722C21.4935 37.1934 21.3776 37.204 21.2659 37.204C20.914 37.204 20.6291 37.1045 20.4113 36.9055C20.1934 36.7065 20.0845 36.4213 20.0845 36.0499V35.1385H21.0816V36.014C21.0816 36.1228 21.1123 36.2064 21.1737 36.2648C21.2352 36.3205 21.3162 36.3483 21.4167 36.3483C21.4725 36.3483 21.5382 36.3377 21.6136 36.3165V35.1385Z" fill="white"/>
<path d="M26.68 37.9204H25.5406L24.8829 36.8618V37.9204H23.911V35.1345H24.8829V36.1494L25.4819 35.1345H26.6214L25.6998 36.5036L26.68 37.9204Z" fill="white"/>
<path d="M29.6387 37.9204L29.5131 37.5344H28.5789L28.449 37.9204H27.3975L28.5663 35.1345H29.5466L30.7238 37.9204H29.6387ZM29.3329 36.8856L29.0481 36.1175L28.7632 36.8856H29.3329Z" fill="white"/>
<path d="M33.7375 36.4558C33.8101 36.4903 33.8744 36.5314 33.9302 36.5792C33.9889 36.6269 34.0378 36.68 34.0769 36.7384C34.1188 36.7967 34.1509 36.8618 34.1732 36.9334C34.1955 37.0024 34.2067 37.0753 34.2067 37.1523C34.2067 37.3805 34.116 37.5662 33.9344 37.7095C33.7529 37.8501 33.5169 37.9204 33.2264 37.9204H31.7518V35.1345H33.2139C33.4792 35.1345 33.697 35.2008 33.8674 35.3335C34.0378 35.4661 34.1229 35.6359 34.1229 35.8429C34.1229 35.9676 34.088 36.0843 34.0182 36.1931C33.9484 36.2993 33.8548 36.3868 33.7375 36.4558ZM33.1468 36.1494C33.1915 36.1122 33.2139 36.0631 33.2139 36.0021C33.2139 35.9411 33.1915 35.8933 33.1468 35.8588C33.105 35.8217 33.0491 35.8031 32.9793 35.8031H32.6651V36.2011H32.9793C33.0491 36.2011 33.105 36.1838 33.1468 36.1494ZM33.0002 37.2398C33.0756 37.2398 33.1371 37.2213 33.1846 37.1841C33.232 37.1443 33.2558 37.0926 33.2558 37.0289C33.2558 36.9652 33.232 36.9148 33.1846 36.8777C33.1371 36.8379 33.0756 36.818 33.0002 36.818H32.6651V37.2398H33.0002Z" fill="white"/>
<path d="M37.7186 35.1345V35.9424H36.9269V37.9204H35.9466V35.9424H35.1548V35.1345H37.7186Z" fill="white"/>
<path d="M41.5392 37.5941C41.232 37.8647 40.827 38 40.3243 38C39.8216 38 39.4167 37.8647 39.1094 37.5941C38.8022 37.3234 38.6486 36.9679 38.6486 36.5274C38.6486 36.087 38.8022 35.7315 39.1094 35.4608C39.4167 35.1902 39.8216 35.0549 40.3243 35.0549C40.827 35.0549 41.232 35.1902 41.5392 35.4608C41.8464 35.7315 42 36.087 42 36.5274C42 36.9679 41.8464 37.3234 41.5392 37.5941ZM39.8635 36.9772C39.9808 37.0913 40.1344 37.1483 40.3243 37.1483C40.5142 37.1483 40.6678 37.0913 40.7851 36.9772C40.9024 36.8631 40.9611 36.7132 40.9611 36.5274C40.9611 36.3417 40.9024 36.1918 40.7851 36.0777C40.6678 35.9636 40.5142 35.9066 40.3243 35.9066C40.1344 35.9066 39.9808 35.9636 39.8635 36.0777C39.7462 36.1918 39.6875 36.3417 39.6875 36.5274C39.6875 36.7132 39.7462 36.8631 39.8635 36.9772Z" fill="white"/>
</svg>
