<svg width="51" height="36" viewBox="0 0 51 36" fill="none" xmlns="http://www.w3.org/2000/svg">
<path d="M18.9351 0.5C15.734 0.5 13.1479 2.8913 13.1479 5.85117C13.1479 8.81104 15.734 11.2023 18.9351 11.2023C22.1362 11.2023 24.7223 8.81104 24.7223 5.85117C24.7223 2.8913 22.1181 0.5 18.9351 0.5ZM18.9351 8.69398C17.2351 8.69398 15.8606 7.42308 15.8606 5.85117C15.8606 4.27926 17.2351 3.00836 18.9351 3.00836C20.6351 3.00836 22.0096 4.27926 22.0096 5.85117C22.0096 7.42308 20.617 8.69398 18.9351 8.69398ZM11.5745 18.0084C11.5745 15.0485 8.9883 12.6572 5.78723 12.6572C2.58617 12.6572 0 15.0485 0 18.0084C0 20.9682 2.58617 23.3595 5.78723 23.3595C8.9883 23.3595 11.5745 20.9682 11.5745 18.0084ZM2.71277 18.0084C2.71277 16.4365 4.08723 15.1656 5.78723 15.1656C7.48723 15.1656 8.8617 16.4365 8.8617 18.0084C8.8617 19.5803 7.48723 20.8512 5.78723 20.8512C4.08723 20.8512 2.71277 19.5803 2.71277 18.0084ZM32.0649 11.2023C33.1862 11.2023 34.2532 10.9013 35.1394 10.3829V11.2023H37.8521V5.85117C37.8521 2.8913 35.266 0.5 32.0649 0.5C28.8638 0.5 26.2777 2.8913 26.2777 5.85117C26.2777 8.81104 28.8638 11.2023 32.0649 11.2023ZM32.0649 3.00836C33.7649 3.00836 35.1394 4.27926 35.1394 5.85117C35.1394 7.42308 33.7649 8.69398 32.0649 8.69398C30.3649 8.69398 28.9904 7.42308 28.9904 5.85117C28.9904 4.27926 30.3649 3.00836 32.0649 3.00836ZM51 5.85117C51 2.8913 48.4138 0.5 45.2128 0.5H39.4255V11.2023H45.2128C48.3957 11.2023 51 8.81104 51 5.85117ZM42.1383 3.00836H45.2128C46.9128 3.00836 48.2872 4.27926 48.2872 5.85117C48.2872 7.42308 46.9128 8.69398 45.2128 8.69398H42.1383V3.00836ZM32.0649 24.7977C28.8638 24.7977 26.2777 27.189 26.2777 30.1488C26.2777 33.1087 28.8638 35.5 32.0649 35.5C33.1862 35.5 34.2532 35.199 35.1394 34.6806V35.5H37.8521V30.1488C37.8521 27.2057 35.266 24.7977 32.0649 24.7977ZM32.0649 32.9916C30.3649 32.9916 28.9904 31.7207 28.9904 30.1488C28.9904 28.5769 30.3649 27.306 32.0649 27.306C33.7649 27.306 35.1394 28.5769 35.1394 30.1488C35.1394 31.7207 33.7649 32.9916 32.0649 32.9916ZM18.9351 24.7977C15.734 24.7977 13.1479 27.189 13.1479 30.1488C13.1479 33.1087 15.734 35.5 18.9351 35.5C22.1362 35.5 24.7223 33.1087 24.7223 30.1488C24.7223 27.189 22.1181 24.7977 18.9351 24.7977ZM18.9351 32.9916C17.2351 32.9916 15.8606 31.7207 15.8606 30.1488C15.8606 28.5769 17.2351 27.306 18.9351 27.306C20.6351 27.306 22.0096 28.5769 22.0096 30.1488C22.0096 31.7207 20.617 32.9916 18.9351 32.9916ZM45.2128 24.7977H39.4255V35.5H45.2128C48.4138 35.5 51 33.1087 51 30.1488C51 27.189 48.3957 24.7977 45.2128 24.7977ZM45.2128 32.9916H42.1383V27.306H45.2128C46.9128 27.306 48.2872 28.5769 48.2872 30.1488C48.2872 31.7207 46.8947 32.9916 45.2128 32.9916ZM18.9351 12.6572C15.734 12.6572 13.1479 15.0485 13.1479 18.0084V23.3595H15.8606V18.0084C15.8606 16.4365 17.2351 15.1656 18.9351 15.1656C20.6351 15.1656 22.0096 16.4365 22.0096 18.0084V23.3595H24.7223V18.0084C24.7223 15.0485 22.1181 12.6572 18.9351 12.6572ZM4.43085 5.85117V11.2023H7.14362V5.85117C7.14362 4.27926 8.51808 3.00836 10.2181 3.00836H12.0989V0.5H10.2181C7.01702 0.5 4.43085 2.90803 4.43085 5.85117ZM7.14362 30.1488V24.7977H4.43085V30.1488C4.43085 33.1087 7.01702 35.5 10.2181 35.5H12.0989V32.9916H10.2181C8.51808 32.9916 7.14362 31.7207 7.14362 30.1488ZM46.3702 12.6572H40.6011H32.083C29.1532 12.6572 26.7298 14.6639 26.35 17.2893H31.2872V18.7441H26.2777V25.5C27.3266 24.2124 29.0085 23.3763 30.9074 23.3763H45.2128C48.1426 23.3763 50.566 21.3696 50.9457 18.7441H45.9904V17.2893H51V10.5334C49.933 11.8211 48.2511 12.6572 46.3702 12.6572ZM37.8521 18.7274H32.8426V17.2726H37.8521V18.7274ZM44.417 18.7274H39.4255V17.2726H44.4351V18.7274H44.417Z" fill="white"/>
</svg>
