<svg width="152" height="27" viewBox="0 0 152 27" fill="none" xmlns="http://www.w3.org/2000/svg">
<g clip-path="url(#clip0_280_2684)">
<path d="M35.5946 25.1067C35.5946 26.1482 34.7425 26.9999 33.7032 26.9999H1.88873C0.847453 26.9999 -0.00195312 26.1482 -0.00195312 25.1067V1.89256C-0.00195312 0.851687 0.847453 0 1.88873 0H33.7032C34.7425 0 35.5946 0.851687 35.5946 1.89256V25.1067Z" fill="white"/>
<path d="M17.7913 11.338C10.2245 9.412 3.843 9.60188 3.27012 11.8633C2.97993 13.0257 4.26087 14.518 6.57625 16.0206C6.40555 15.4496 6.37619 14.8937 6.50661 14.3664C7.18463 11.6843 11.87 10.5649 17.7913 11.338Z" fill="#1F5DFD"/>
<path d="M30.6344 12.3227C29.0182 10.5783 25.3154 8.55533 20.7515 7.13676C14.2615 5.11717 8.42285 5.07823 7.89641 6.9906C7.75029 7.5165 8.01999 8.14759 8.62018 8.82511C10.0199 6.90045 15.2099 6.15531 20.602 7.82863C22.2885 8.31287 26.7773 10.2806 28.3573 12.5385C29.1172 13.632 29.2435 15.0314 27.8957 15.5444C28.5512 15.5457 29.9919 15.5307 30.8618 15.0949C32.1782 14.4297 31.3384 13.0822 30.6344 12.3227Z" fill="#1F5DFD"/>
<path d="M27.7546 9.41235C29.2957 9.24092 30.3008 8.80312 30.4169 8.12628C30.6142 7.00618 28.4224 5.4435 25.1115 4.43268C23.7746 4.07548 22.2642 3.82004 20.661 3.70939C19.2906 3.61856 17.9721 3.6329 16.7588 3.75037C18.25 3.73125 19.5863 3.87673 20.885 4.08982C22.5694 4.35892 26.3638 5.47219 27.799 7.11683C28.4347 7.84557 28.6812 8.85708 27.7546 9.41235Z" fill="#1F5DFD"/>
<path d="M8.37023 21.6723L8.36613 19.8547L7.55633 21.3582H7.35285L6.54168 19.8793V21.6723H6.10742V18.9323H6.48569L7.46074 20.7451L8.42758 18.9323H8.80108L8.80859 21.6723H8.37023Z" fill="#1F5DFD"/>
<path d="M11.3487 21.2456V21.6723H9.49902V18.9323H11.2989V19.3576H9.9565V20.0712H11.1487V20.4897H9.9565V21.2456H11.3487Z" fill="#1F5DFD"/>
<path d="M13.534 19.3617H12.3104L12.3152 21.6723H11.8652V18.9323H13.5381L13.534 19.3617Z" fill="#1F5DFD"/>
<path d="M14.9293 20.6386L14.4643 19.4409L14.0034 20.6386H14.9293ZM15.0815 21.038H13.8491L13.6053 21.673H13.1328L14.2437 18.9323H14.6937L15.808 21.673H15.328L15.0815 21.038Z" fill="#1F5DFD"/>
<path d="M16.6092 21.5306C16.4105 21.4084 16.2535 21.2398 16.1374 21.0267C16.0241 20.8137 15.9688 20.5713 15.9688 20.303C15.9688 20.0332 16.0241 19.7922 16.1395 19.5778C16.2542 19.3641 16.4119 19.1954 16.6133 19.0746C16.8147 18.9537 17.0401 18.8916 17.2886 18.8916C17.49 18.8916 17.6764 18.9326 17.8417 19.0111C18.009 19.0889 18.1496 19.2016 18.2643 19.3504L17.9687 19.6604C17.7898 19.4454 17.5706 19.3402 17.3084 19.3402C17.1391 19.3402 16.9882 19.3819 16.855 19.4617C16.7219 19.5444 16.6174 19.6591 16.5423 19.8052C16.4665 19.9513 16.4283 20.1172 16.4283 20.303C16.4283 20.488 16.4665 20.6532 16.5423 20.7987C16.6174 20.9455 16.7219 21.0615 16.855 21.1421C16.9882 21.2247 17.1391 21.2657 17.3084 21.2657C17.5706 21.2657 17.7898 21.1565 17.9687 20.9414L18.2643 21.2534C18.1496 21.4023 18.009 21.5163 17.8403 21.5948C17.673 21.6727 17.4859 21.7129 17.2845 21.7129C17.036 21.7129 16.8106 21.6501 16.6092 21.5306Z" fill="#1F5DFD"/>
<path d="M20.8738 18.9323V21.6723H20.4239V19.3617H19.1443V21.6723H18.6943V18.9323H20.8738Z" fill="#1F5DFD"/>
<path d="M23.1554 21.1421C23.2858 21.0615 23.3916 20.9448 23.466 20.7966C23.5398 20.6505 23.5794 20.4846 23.5794 20.303C23.5794 20.1186 23.5398 19.9547 23.466 19.8072C23.3916 19.6591 23.2858 19.5444 23.1554 19.4617C23.0236 19.3812 22.8761 19.3402 22.7122 19.3402C22.5456 19.3402 22.3975 19.3812 22.267 19.4617C22.1373 19.5444 22.0315 19.6591 21.957 19.8072C21.8833 19.9547 21.8437 20.1186 21.8437 20.303C21.8437 20.4846 21.8833 20.6505 21.957 20.7966C22.0315 20.9448 22.1373 21.0615 22.267 21.1421C22.3975 21.2247 22.5456 21.2657 22.7122 21.2657C22.8761 21.2657 23.0236 21.2247 23.1554 21.1421ZM22.0315 21.5306C21.8287 21.4084 21.6696 21.2391 21.5556 21.024C21.4388 20.8089 21.3828 20.5672 21.3828 20.303C21.3828 20.0367 21.4388 19.7943 21.5556 19.5799C21.6696 19.3648 21.8287 19.1948 22.0315 19.0746C22.2329 18.9537 22.4589 18.8916 22.7122 18.8916C22.9615 18.8916 23.1895 18.9537 23.3916 19.0746C23.5937 19.1948 23.7515 19.3641 23.8689 19.5771C23.9822 19.7915 24.0403 20.0332 24.0403 20.303C24.0403 20.5713 23.9822 20.8137 23.8689 21.0267C23.7515 21.2398 23.5937 21.4084 23.3916 21.5306C23.1895 21.6501 22.9615 21.7123 22.7122 21.7123C22.4589 21.7123 22.2329 21.6501 22.0315 21.5306Z" fill="#1F5DFD"/>
<path d="M25.9971 20.3101C26.0995 20.2159 26.1527 20.0821 26.1527 19.9059C26.1527 19.7311 26.0995 19.5987 25.9971 19.5031C25.8939 19.4095 25.7424 19.3624 25.5423 19.3624H25.007V20.4522H25.5423C25.7424 20.4522 25.8939 20.4051 25.9971 20.3101ZM26.1213 19.0497C26.2797 19.1275 26.402 19.2395 26.4859 19.3856C26.572 19.5324 26.6129 19.7059 26.6129 19.9059C26.6129 20.1046 26.572 20.2781 26.4859 20.4255C26.402 20.5737 26.2797 20.6864 26.1213 20.7635C25.9622 20.8421 25.7772 20.8817 25.5628 20.8817H25.007V21.673H24.5488V18.9323H25.5628C25.7772 18.9323 25.9622 18.9719 26.1213 19.0497Z" fill="#1F5DFD"/>
<path d="M28.768 19.3617H27.9493V21.6723H27.4946V19.3617H26.6807V18.9323H28.768V19.3617Z" fill="#1F5DFD"/>
<path d="M7.24871 22.6519V24.0229H7.12308V22.9257L6.63897 23.8495H6.5782L6.09204 22.9318V24.0229H5.96777V22.6519H6.07497L6.60961 23.6692L7.14151 22.6519H7.24871Z" fill="#1F5DFD"/>
<path d="M8.47121 23.8334C8.54905 23.7835 8.61118 23.7152 8.65625 23.6285C8.69995 23.5418 8.72248 23.4448 8.72248 23.3376C8.72248 23.2304 8.69995 23.1335 8.65625 23.0481C8.61118 22.9607 8.54905 22.8918 8.47121 22.8433C8.392 22.7948 8.30324 22.7702 8.20696 22.7702C8.10864 22.7702 8.02124 22.7948 7.94204 22.8433C7.86078 22.8918 7.79933 22.9607 7.75358 23.0481C7.7092 23.1335 7.68598 23.2304 7.68598 23.3376C7.68598 23.4448 7.7092 23.5418 7.75358 23.6285C7.79933 23.7152 7.86078 23.7835 7.94204 23.8334C8.02124 23.8805 8.10864 23.9057 8.20696 23.9057C8.30324 23.9057 8.392 23.8805 8.47121 23.8334ZM7.87512 23.9447C7.77475 23.8825 7.69827 23.7999 7.64092 23.6934C7.5863 23.5896 7.55762 23.4694 7.55762 23.3376C7.55762 23.2065 7.5863 23.0871 7.64092 22.9819C7.69827 22.8754 7.77475 22.7928 7.87512 22.732C7.97344 22.6712 8.08406 22.6405 8.20696 22.6405C8.32918 22.6405 8.4398 22.6712 8.53676 22.7293C8.6344 22.7907 8.71224 22.8747 8.76891 22.9819C8.8249 23.0871 8.85358 23.2065 8.85358 23.3376C8.85358 23.4694 8.8249 23.5896 8.76891 23.6948C8.71224 23.8026 8.6344 23.8846 8.53676 23.9447C8.4398 24.0041 8.32918 24.0348 8.20696 24.0348C8.08406 24.0348 7.97344 24.0041 7.87512 23.9447Z" fill="#1F5DFD"/>
<path d="M9.37298 23.9447C9.27397 23.8846 9.19954 23.8026 9.14219 23.6948C9.08688 23.5889 9.05957 23.4694 9.05957 23.3376C9.05957 23.2059 9.08688 23.0871 9.14219 22.9819C9.19954 22.8747 9.2767 22.7907 9.37298 22.7293C9.47267 22.6712 9.58465 22.6405 9.70618 22.6405C9.79768 22.6405 9.88166 22.6576 9.95882 22.6924C10.0367 22.7252 10.1029 22.775 10.1568 22.8399L10.0742 22.9321C9.97726 22.8249 9.8564 22.7702 9.70892 22.7702C9.61127 22.7702 9.52456 22.7955 9.44399 22.8453C9.36342 22.8952 9.3006 22.9621 9.25758 23.0481C9.21115 23.1342 9.18794 23.2304 9.18794 23.3376C9.18794 23.4448 9.21115 23.5418 9.25758 23.6285C9.3006 23.7146 9.36342 23.7815 9.44399 23.8313C9.52456 23.8805 9.61127 23.9057 9.70892 23.9057C9.85708 23.9057 9.97931 23.8511 10.0742 23.7412L10.1568 23.834C10.1029 23.8996 10.0367 23.9488 9.95814 23.9843C9.88098 24.0177 9.79495 24.0348 9.70345 24.0348C9.5826 24.0348 9.47267 24.0041 9.37298 23.9447Z" fill="#1F5DFD"/>
<path d="M10.8341 23.3947H10.5535V24.0229H10.4258V22.6519H10.5535V23.2671H10.8341L11.254 22.6519H11.3947L10.9358 23.3183L11.4213 24.0229H11.2704L10.8341 23.3947Z" fill="#1F5DFD"/>
<path d="M12.4859 23.6426C12.4859 23.4705 12.3808 23.3845 12.167 23.3845H11.7492V23.9075H12.167C12.3808 23.9075 12.4859 23.8188 12.4859 23.6426ZM11.7492 23.2732H12.1281C12.221 23.2732 12.2947 23.252 12.3466 23.2077C12.3965 23.1653 12.4231 23.1025 12.4231 23.0213C12.4231 22.9386 12.3965 22.8751 12.3466 22.8328C12.2947 22.7891 12.221 22.7686 12.1281 22.7686H11.7492V23.2732ZM12.5474 23.4309C12.5924 23.4876 12.6143 23.5627 12.6143 23.6522C12.6143 23.7717 12.5767 23.8645 12.5016 23.928C12.4251 23.9915 12.3138 24.0229 12.167 24.0229H11.6201V22.6519H12.1343C12.2647 22.6519 12.3678 22.6819 12.4429 22.742C12.5166 22.8028 12.5528 22.8888 12.5528 23.0021C12.5528 23.08 12.5344 23.1448 12.5002 23.1988C12.4647 23.25 12.4149 23.2896 12.3534 23.3155C12.4388 23.3353 12.5023 23.3743 12.5474 23.4309Z" fill="#1F5DFD"/>
<path d="M13.6829 23.5392L13.3866 22.8024L13.0923 23.5392H13.6829ZM13.7328 23.6573H13.0445L12.8963 24.0226H12.7598L13.3238 22.6522H13.4528L14.0175 24.0226H13.8789L13.7328 23.6573Z" fill="#1F5DFD"/>
<path d="M55.8804 14.8004L55.8647 6.23438L52.0438 13.3258H51.0817L47.26 6.34639V14.8004H45.2178V1.87964H46.9951L51.5952 10.4266L56.1467 1.87964H57.9083L57.9411 14.8004H55.8804Z" fill="white"/>
<path d="M69.9164 12.789V14.8004H61.1963V1.87964H69.6822V3.89104H63.3539V7.24998H68.9679V9.22587H63.3539V12.789H69.9164Z" fill="white"/>
<path d="M80.2127 3.91085H74.4492L74.4663 14.8004H72.3394V1.87964H80.2291L80.2127 3.91085Z" fill="white"/>
<path d="M86.7895 9.92866L84.5963 4.27898L82.4223 9.92866H86.7895ZM87.5044 11.811H81.6903L80.5446 14.8004H78.3193L83.5496 1.87964H85.6759L90.9266 14.8004H88.6672L87.5044 11.811Z" fill="white"/>
<path d="M94.7048 14.1289C93.7577 13.5538 93.0155 12.765 92.4795 11.7555C91.9442 10.7474 91.6738 9.60886 91.6738 8.33918C91.6738 7.07429 91.9442 5.93506 92.487 4.92697C93.0306 3.91547 93.7734 3.12525 94.7225 2.55359C95.6689 1.98124 96.7279 1.69507 97.9037 1.69507C98.8562 1.69507 99.7227 1.88016 100.511 2.25034C101.296 2.61779 101.96 3.15325 102.503 3.85536L101.108 5.31218C100.267 4.30272 99.2325 3.79867 98.002 3.79867C97.2073 3.79867 96.4917 3.99469 95.8594 4.38126C95.2299 4.76784 94.7355 5.30535 94.3818 5.99517C94.0268 6.68567 93.8486 7.46701 93.8486 8.33918C93.8486 9.21614 94.0268 9.99475 94.3818 10.6846C94.7355 11.3737 95.2299 11.9119 95.8594 12.2978C96.4917 12.6878 97.2073 12.8824 98.002 12.8824C99.2325 12.8824 100.267 12.3722 101.108 11.3505L102.503 12.8264C101.96 13.5299 101.293 14.0633 100.5 14.4328C99.709 14.8009 98.8392 14.986 97.8846 14.986C96.7115 14.986 95.6525 14.6992 94.7048 14.1289Z" fill="white"/>
<path d="M114.813 1.87964V14.8004H112.685V3.91085H106.658V14.8004H104.531V1.87964H114.813Z" fill="white"/>
<path d="M125.558 12.2978C126.178 11.9126 126.664 11.3723 127.019 10.675C127.374 9.98041 127.551 9.20248 127.551 8.33918C127.551 7.47725 127.374 6.70069 127.019 6.00609C126.664 5.31081 126.178 4.76784 125.558 4.38126C124.937 3.99469 124.239 3.79867 123.465 3.79867C122.689 3.79867 121.993 3.99469 121.371 4.38126C120.751 4.76784 120.264 5.31081 119.911 6.00609C119.554 6.70069 119.379 7.47725 119.379 8.33918C119.379 9.20248 119.554 9.98041 119.911 10.675C120.264 11.3723 120.751 11.9126 121.371 12.2978C121.993 12.6878 122.689 12.8824 123.465 12.8824C124.239 12.8824 124.937 12.6878 125.558 12.2978ZM120.258 14.1289C119.308 13.5538 118.558 12.7622 118.018 11.748C117.474 10.7331 117.204 9.59384 117.204 8.33918C117.204 7.0859 117.474 5.95009 118.018 4.93312C118.558 3.9182 119.308 3.12525 120.258 2.55359C121.211 1.98124 122.281 1.69507 123.465 1.69507C124.649 1.69507 125.719 1.98124 126.67 2.55359C127.622 3.12525 128.37 3.91615 128.912 4.92697C129.456 5.93575 129.726 7.07429 129.726 8.33918C129.726 9.60886 129.456 10.7474 128.912 11.7562C128.37 12.765 127.622 13.5538 126.67 14.1289C125.719 14.6999 124.649 14.986 123.465 14.986C122.281 14.986 121.211 14.6999 120.258 14.1289Z" fill="white"/>
<path d="M138.944 8.37623C139.431 7.93433 139.676 7.29915 139.676 6.47479C139.676 5.65247 139.431 5.01592 138.944 4.57403C138.456 4.13282 137.744 3.91085 136.801 3.91085H134.278V9.04214H136.801C137.744 9.04214 138.456 8.82085 138.944 8.37623ZM139.535 2.43286C140.282 2.80372 140.855 3.33167 141.252 4.01944C141.653 4.70926 141.851 5.52816 141.851 6.47479C141.851 7.4098 141.653 8.22734 141.252 8.92125C140.855 9.61654 140.282 10.1486 139.535 10.5201C138.787 10.8876 137.909 11.074 136.901 11.074H134.278V14.8004H132.117V1.87964H136.901C137.909 1.87964 138.787 2.06268 139.535 2.43286Z" fill="white"/>
<path d="M151.999 3.91085H148.146V14.8004H146.004V3.91085H142.167V1.87964H151.999V3.91085Z" fill="white"/>
<path d="M50.5888 19.4176V25.8787H50.0002V20.7085L47.7149 25.057H47.4261L45.1414 20.7371V25.8787H44.5508V19.4176H45.0574L47.5831 24.2074L50.0835 19.4176H50.5888Z" fill="white"/>
<path d="M56.3463 24.9781C56.717 24.7479 57.0079 24.4269 57.2203 24.0185C57.4285 23.6101 57.5344 23.1525 57.5344 22.6477C57.5344 22.1437 57.4285 21.6868 57.2203 21.277C57.0079 20.8699 56.717 20.5489 56.3463 20.3187C55.9742 20.0858 55.5611 19.9704 55.1002 19.9704C54.6413 19.9704 54.2241 20.0858 53.8527 20.3187C53.4758 20.5489 53.1822 20.8699 52.9705 21.277C52.7568 21.6868 52.6489 22.1437 52.6489 22.6477C52.6489 23.1525 52.7568 23.6101 52.9705 24.0185C53.1822 24.4269 53.4758 24.7479 53.8527 24.9781C54.2241 25.2082 54.6413 25.3244 55.1002 25.3244C55.5611 25.3244 55.9742 25.2082 56.3463 24.9781ZM53.5359 25.504C53.0668 25.2192 52.7008 24.8251 52.4386 24.3292C52.1764 23.83 52.0439 23.2679 52.0439 22.6477C52.0439 22.0269 52.1764 21.4648 52.4386 20.9676C52.7008 20.471 53.0668 20.0783 53.5359 19.7928C54.0022 19.5046 54.5232 19.3625 55.1002 19.3625C55.6765 19.3625 56.1947 19.5046 56.6583 19.7881C57.1192 20.0688 57.4825 20.4615 57.7488 20.9607C58.0151 21.4648 58.1482 22.0269 58.1482 22.6477C58.1482 23.2679 58.0151 23.83 57.7488 24.3347C57.4825 24.8319 57.1192 25.2246 56.6583 25.5115C56.1947 25.7915 55.6765 25.9356 55.1002 25.9356C54.5232 25.9356 54.0022 25.7915 53.5359 25.504Z" fill="white"/>
<path d="M60.6021 25.5112C60.1392 25.225 59.7773 24.8316 59.5117 24.3344C59.2508 23.8297 59.1177 23.2676 59.1177 22.6474C59.1177 22.0266 59.2508 21.4652 59.5117 20.9604C59.7773 20.4612 60.1405 20.0684 60.6055 19.7877C61.0712 19.505 61.5901 19.3629 62.1678 19.3629C62.5979 19.3629 62.9974 19.4415 63.3627 19.6006C63.7273 19.7618 64.0373 19.9974 64.292 20.3034L63.9021 20.7371C63.4473 20.2269 62.8731 19.9708 62.1835 19.9708C61.7239 19.9708 61.3054 20.0882 60.9285 20.3232C60.5522 20.5554 60.2586 20.8757 60.0463 21.2821C59.8312 21.6905 59.7254 22.1434 59.7254 22.6474C59.7254 23.1521 59.8312 23.6063 60.0463 24.012C60.2586 24.4211 60.5522 24.7428 60.9285 24.9703C61.3054 25.2086 61.7239 25.324 62.1835 25.324C62.8806 25.324 63.4542 25.0679 63.9021 24.5468L64.292 24.9832C64.0373 25.2899 63.7266 25.5289 63.3579 25.6894C62.9898 25.852 62.5897 25.936 62.1575 25.936C61.5826 25.936 61.0623 25.7912 60.6021 25.5112Z" fill="white"/>
<path d="M67.4894 22.9172H66.1606V25.8787H65.5625V19.4176H66.1606V22.3148H67.4894L69.4572 19.4176H70.1209L67.9619 22.5559L70.2458 25.8787H69.5391L67.4894 22.9172Z" fill="white"/>
<path d="M75.2709 24.0879C75.2709 23.2751 74.769 22.8681 73.766 22.8681H71.7981V25.3316H73.766C74.769 25.3316 75.2709 24.9198 75.2709 24.0879ZM71.7981 22.3428H73.5782C74.0247 22.3428 74.3696 22.2397 74.6099 22.0403C74.8537 21.8367 74.9718 21.541 74.9718 21.1503C74.9718 20.7658 74.8537 20.4708 74.6099 20.2672C74.3696 20.0658 74.0247 19.9619 73.5782 19.9619H71.7981V22.3428ZM75.5597 23.0839C75.7707 23.3537 75.8779 23.7034 75.8779 24.133C75.8779 24.6944 75.6997 25.1274 75.3412 25.4231C74.9827 25.7277 74.459 25.8787 73.766 25.8787H71.1938V19.4176H73.611C74.2316 19.4176 74.7151 19.5603 75.0606 19.8411C75.4122 20.1224 75.587 20.5322 75.587 21.0698C75.587 21.4317 75.503 21.7398 75.3371 21.9891C75.1705 22.2377 74.9397 22.4234 74.6406 22.5436C75.0449 22.6358 75.3507 22.8203 75.5597 23.0839Z" fill="white"/>
<path d="M80.9115 23.6002L79.5158 20.13L78.1195 23.6002H80.9115ZM81.1334 24.1521H77.8955L77.1977 25.8794H76.5586L79.2154 19.4176H79.8238L82.4812 25.8794H81.8326L81.1334 24.1521Z" fill="white"/>
</g>
<defs>
<clipPath id="clip0_280_2684">
<rect width="152" height="27" fill="white"/>
</clipPath>
</defs>
</svg>
